<svg width="72" height="72" viewBox="0 0 72 72" fill="none" xmlns="http://www.w3.org/2000/svg">
<rect width="72" height="72" fill="black"/>
<path fill-rule="evenodd" clip-rule="evenodd" d="M39.76 49.92H28V46.032L29.728 45.888C29.9043 45.877 30.0781 45.8406 30.244 45.78C30.6253 45.634 30.8577 45.3507 30.941 44.93C30.9652 44.8028 30.9769 44.6735 30.976 44.544V22.224L28.24 22.08V18H36.88L50.464 40.032H50.56V22.224L47.392 22.08V18H59.104V21.888L57.376 22.032C56.6567 22.092 56.2743 22.5307 56.229 23.348C56.2257 23.4053 56.2241 23.4626 56.224 23.52V49.92H50.608L36.736 27.552H36.64V45.696L39.76 45.84V49.92Z" fill="#EC7DDA" stroke="#EC7DDA" stroke-width="0.25" stroke-linecap="round"/>
<g clip-path="url(#clip0_7_30)">
<path fill-rule="evenodd" clip-rule="evenodd" d="M34.2808 44.0304L31.7731 41.1223L35.7004 38.1794L41.1233 44.4682C40.6169 45.7255 39.9508 46.9123 39.1413 47.9994C38.4332 48.9657 37.5928 49.9241 36.6201 50.8747C36.1638 51.3193 35.6938 51.7496 35.2109 52.1651C34.089 53.1477 32.865 54.0071 31.5598 54.7285C29.8791 55.6399 28.1944 56.1842 26.5056 56.3614C25.6816 56.448 24.8508 56.4469 24.027 56.3582C21.0261 56.0366 18.0877 54.5228 15.212 51.8167C14.4616 51.1073 13.7487 50.3592 13.0762 49.5756C12.2585 48.6346 11.508 47.6373 10.8301 46.5911C10.0866 45.4338 9.49319 44.2787 9.04997 43.1256C9.00421 43.0068 8.95985 42.8875 8.91691 42.7676C8.59048 41.8696 8.34708 40.9436 8.18978 40.0011C7.99309 38.7807 7.98111 37.6194 8.15384 36.5171C8.74216 32.9454 10.5649 29.6933 13.3045 27.3273C13.3962 27.2449 13.4888 27.1633 13.5821 27.0827C16.0055 24.9929 18.7119 23.5254 21.7013 22.68L27.0302 28.8598L23.5417 32.3115L21.0968 29.4761C20.8268 29.1631 20.5831 28.9529 20.3656 28.8456C20.3318 28.8289 20.2972 28.8143 20.2617 28.8018C20.0531 28.7403 19.8313 28.7396 19.6223 28.7999C19.0493 28.9357 18.2811 29.3877 17.3177 30.156C17.1036 30.3271 16.8928 30.5023 16.6853 30.6815C15.9681 31.2883 15.3358 31.989 14.8055 32.7646C13.8735 34.12 13.4258 35.7501 13.5346 37.3914C13.6164 38.5288 13.8927 39.6438 14.3516 40.6878C15.0094 42.2368 16.0571 43.8448 17.4947 45.512C18.4243 46.6097 19.4536 47.6189 20.5696 48.5265C24.3603 51.5475 27.9585 51.7643 31.364 49.1772C31.5684 49.0216 31.7679 48.8597 31.9622 48.6917L32.9255 47.8611C33.391 47.4634 33.8046 47.0087 34.1565 46.5078C34.2197 46.4167 34.2807 46.324 34.3394 46.2299C34.415 46.1101 34.4867 45.988 34.5544 45.8636C34.7501 45.4994 34.8431 45.2189 34.8336 45.0221C34.8323 44.9997 34.8294 44.9774 34.825 44.9555C34.7818 44.7339 34.6373 44.4699 34.3915 44.1633C34.3554 44.1184 34.3185 44.074 34.2808 44.0304Z" fill="#7DECCB"/>
</g>
<defs>
<clipPath id="clip0_7_30">
<rect width="28.2893" height="35.026" fill="white" transform="translate(0 37.4741) rotate(-40.7714)"/>
</clipPath>
</defs>
</svg>
